<svg width="325" height="194" viewBox="0 0 325 194" fill="none" xmlns="http://www.w3.org/2000/svg">
<rect x="7.5" y="7.5" width="311" height="180" fill="#FAFAFA" fill-opacity="0.75" stroke="black"/>
<mask id="path-2-inside-1_114_318" fill="white">
<path d="M33 2V15H16V32H3V2H33Z"/>
</mask>
<path d="M33 2V15H16V32H3V2H33Z" fill="#38C0FC"/>
<path d="M33 2H34V1H33V2ZM33 15V16H34V15H33ZM16 15V14H15V15H16ZM16 32V33H17V32H16ZM3 32H2V33H3V32ZM3 2V1H2V2H3ZM33 2H32V15H33H34V2H33ZM33 15V14H16V15V16H33V15ZM16 15H15V32H16H17V15H16ZM16 32V31H3V32V33H16V32ZM3 32H4V2H3H2V32H3ZM3 2V3H33V2V1H3V2Z" fill="#E4E4E4" mask="url(#path-2-inside-1_114_318)"/>
<mask id="path-4-inside-2_114_318" fill="white">
<path d="M295 192V179H312V162H325V192H295Z"/>
</mask>
<path d="M295 192V179H312V162H325V192H295Z" fill="#38C0FC"/>
<path d="M295 192H294V193H295V192ZM295 179V178H294V179H295ZM312 179V180H313V179H312ZM312 162V161H311V162H312ZM325 162H326V161H325V162ZM325 192V193H326V192H325ZM295 192H296V179H295H294V192H295ZM295 179V180H312V179V178H295V179ZM312 179H313V162H312H311V179H312ZM312 162V163H325V162V161H312V162ZM325 162H324V192H325H326V162H325ZM325 192V191H295V192V193H325V192Z" fill="#E4E4E4" mask="url(#path-4-inside-2_114_318)"/>
<mask id="path-6-inside-3_114_318" fill="white">
<path d="M295 2L295 15L312 15L312 32L325 32L325 2L295 2Z"/>
</mask>
<path d="M295 2L295 15L312 15L312 32L325 32L325 2L295 2Z" fill="#38C0FC"/>
<path d="M295 2L294 2L294 0.999997L295 0.999997L295 2ZM295 15L295 16L294 16L294 15L295 15ZM312 15L312 14L313 14L313 15L312 15ZM312 32L312 33L311 33L311 32L312 32ZM325 32L326 32L326 33L325 33L325 32ZM325 2L325 1L326 1L326 2L325 2ZM295 2L296 2L296 15L295 15L294 15L294 2L295 2ZM295 15L295 14L312 14L312 15L312 16L295 16L295 15ZM312 15L313 15L313 32L312 32L311 32L311 15L312 15ZM312 32L312 31L325 31L325 32L325 33L312 33L312 32ZM325 32L324 32L324 2L325 2L326 2L326 32L325 32ZM325 2L325 3L295 3L295 2L295 0.999997L325 1L325 2Z" fill="#E4E4E4" mask="url(#path-6-inside-3_114_318)"/>
<mask id="path-8-inside-4_114_318" fill="white">
<path d="M33 192L33 179L16 179L16 162L3 162L3 192L33 192Z"/>
</mask>
<path d="M33 192L33 179L16 179L16 162L3 162L3 192L33 192Z" fill="#38C0FC"/>
<path d="M33 192L34 192L34 193L33 193L33 192ZM33 179L33 178L34 178L34 179L33 179ZM16 179L16 180L15 180L15 179L16 179ZM16 162L16 161L17 161L17 162L16 162ZM3 162L2 162L2 161L3 161L3 162ZM3 192L3 193L2 193L2 192L3 192ZM33 192L32 192L32 179L33 179L34 179L34 192L33 192ZM33 179L33 180L16 180L16 179L16 178L33 178L33 179ZM16 179L15 179L15 162L16 162L17 162L17 179L16 179ZM16 162L16 163L3 163L3 162L3 161L16 161L16 162ZM3 162L4 162L4 192L3 192L2 192L2 162L3 162ZM3 192L3 191L33 191L33 192L33 193L3 193L3 192Z" fill="#E4E4E4" mask="url(#path-8-inside-4_114_318)"/>
<rect x="157" width="13" height="13" fill="#A7A7A7"/>
<rect x="312" y="90" width="13" height="13" fill="#A7A7A7"/>
<rect y="90" width="13" height="13" fill="#A7A7A7"/>
<rect x="157" y="181" width="13" height="13" fill="#A7A7A7"/>
</svg>
